<?xml version="1.0" encoding="UTF-8"?>
<svg id="Layer_1" data-name="Layer 1" xmlns="http://www.w3.org/2000/svg" viewBox="0 0 206.91 69.78">
  <defs>
    <style>
      .cls-1 {
        fill: #aa37a6;
      }

      .cls-1, .cls-2, .cls-3, .cls-4, .cls-5, .cls-6 {
        stroke-width: 0px;
      }

      .cls-2 {
        fill: #15afee;
      }

      .cls-3 {
        fill: #5275cb;
      }

      .cls-4 {
        fill: #d7a0d4;
      }

      .cls-7 {
        fill: #001d8a;
        font-family: CascadiaMono-Regular, 'Cascadia Mono';
        font-size: 36px;
        font-variation-settings: 'wght' 400;
      }

      .cls-5 {
        fill: #00acee;
      }

      .cls-6 {
        fill: #03adee;
      }
    </style>
  </defs>
  <path class="cls-1" d="M40.2,0c.66.75,1.2,1.59,1.6,2.5,12.71,22,25.41,44.02,38.12,66.06.29.33.44.77.43,1.21h-16.57s-.05-.08-.1-.09c.45-.27.18-.48,0-.7-.26-.47-.5-1-.78-1.42-2.07-3.47-4.15-6.93-6.23-10.38-1-1.62-1.87-3.31-3-4.84l-.16-.31c-1-1.94-2.17-3.75-3.29-5.61-3.29-5.51-6.6-11.01-9.93-16.5,0-.45-.05-.9-.05-1.35l-.04-28.57Z"/>
  <path class="cls-4" d="M40.2,0v28.57c0,.45,0,.9.05,1.35-.54.25-.72.81-1,1.26-2.57,4.24-5.1,8.51-7.66,12.77-1.58,2.63-3.18,5.25-4.77,7.87-1.93-2.25-3.57-4.73-5.4-7.06-1.39-1.77-2.6-3.67-4.12-5.34.78-1.64,1.65-3.22,2.63-4.75,2.6-4.56,5.24-9.1,7.87-13.65l7.64-13.13c1.39-2.39,2.78-4.78,4.15-7.18.16-.3.24-.64.61-.71Z"/>
  <path class="cls-3" d="M17.31,39.42c1.52,1.67,2.73,3.57,4.12,5.34,1.83,2.33,3.47,4.81,5.4,7.06.02.08.02.17,0,.25-.3.45-.62.89-.9,1.35-1.27,2.08-2.53,4.17-3.77,6.27-1.89,3.18-3.78,6.37-5.65,9.56-.17.1-.27.28-.28.47l-12.38.06H.02c-.12-.67.31-1.08.56-1.52,4.26-7.4,8.52-14.79,12.79-22.17,1.3-2.2,2.48-4.53,3.94-6.67Z"/>
  <path class="cls-6" d="M16.51,69.25c1.88-3.19,3.76-6.38,5.65-9.56,1.24-2.1,2.5-4.19,3.77-6.27.28-.46.6-.9.9-1.35,2.3,3,4.6,6,6.88,9.09,2,2.68,4.09,5.29,6,8.06v.49c-.64,0-1.27.06-1.9.06h-21.29v-.52Z"/>
  <path class="cls-5" d="M53.63,52.34c1.13,1.53,2,3.22,3,4.84,2.09,3.45,4.17,6.91,6.23,10.38.28.46.52,1,.78,1.42v.7s.09.04.1.09h-21.9c-.36,0-.72,0-1.08-.06l-.07-.57c1.64-2.21,3.26-4.44,4.91-6.64,2.55-3.39,5.11-6.78,7.69-10.15h.34Z"/>
  <path class="cls-2" d="M40.69,69.14l.07.57h-1.1v-.49c.4.46.72.22,1.03-.08Z"/>
  <path class="cls-2" d="M16.51,69.25v.47h-.29c0-.2.12-.38.29-.47Z"/>
  <path class="cls-2" d="M63.68,69.68v-.7c.18.22.45.43,0,.7Z"/>
  <path class="cls-2" d="M53.29,52.35l.18-.32.16.31h-.34Z"/>
  <text class="cls-7" transform="translate(80.35 51.82)"><tspan x="0" y="0">SHUAIB</tspan></text>
</svg>